<svg xmlns="http://www.w3.org/2000/svg" width="33" height="33" viewBox="0 0 33 33">
  <g id="Icon_feather-instagram" data-name="Icon feather-instagram" transform="translate(1.5 1.5)">
    <path id="Path_1168" data-name="Path 1168" d="M10.5,3h15A7.5,7.5,0,0,1,33,10.5v15A7.5,7.5,0,0,1,25.5,33h-15A7.5,7.5,0,0,1,3,25.5v-15A7.5,7.5,0,0,1,10.5,3Z" transform="translate(-3 -3)" fill="none" stroke="#baff00" stroke-linecap="round" stroke-linejoin="round" stroke-width="3"/>
    <path id="Path_1169" data-name="Path 1169" d="M24,17.055A6,6,0,1,1,18.945,12,6,6,0,0,1,24,17.055Z" transform="translate(-3 -3)" fill="none" stroke="#baff00" stroke-linecap="round" stroke-linejoin="round" stroke-width="3"/>
    <path id="Path_1170" data-name="Path 1170" d="M26.25,9.75h0" transform="translate(-3 -3)" fill="none" stroke="#baff00" stroke-linecap="round" stroke-linejoin="round" stroke-width="3"/>
  </g>
</svg>
