<svg xmlns="http://www.w3.org/2000/svg" width="33" height="31.5" viewBox="0 0 33 31.5">
  <g id="Icon_feather-linkedin" data-name="Icon feather-linkedin" transform="translate(1.5 1.5)">
    <path id="Path_1165" data-name="Path 1165" d="M24,12a9,9,0,0,1,9,9V31.5H27V21a3,3,0,0,0-6,0V31.5H15V21a9,9,0,0,1,9-9Z" transform="translate(-3 -3)" fill="none" stroke="#baff00" stroke-linecap="round" stroke-linejoin="round" stroke-width="3"/>
    <path id="Path_1166" data-name="Path 1166" d="M3,13.5H9v18H3Z" transform="translate(-3 -3)" fill="none" stroke="#baff00" stroke-linecap="round" stroke-linejoin="round" stroke-width="3"/>
    <path id="Path_1167" data-name="Path 1167" d="M9,6A3,3,0,1,1,6,3,3,3,0,0,1,9,6Z" transform="translate(-3 -3)" fill="none" stroke="#baff00" stroke-linecap="round" stroke-linejoin="round" stroke-width="3"/>
  </g>
</svg>
